HIERARCHY
ROOT Hips
{
  OFFSET 0.000940514 47.6841 -0.128968
  CHANNELS 6 Xposition Yposition Zposition Zrotation Xrotation Yrotation
  JOINT RightHipJoint
  {
    OFFSET 0 0 0
    CHANNELS 3 Zrotation Xrotation Yrotation
    JOINT RightUpLeg
    {
      OFFSET -6.08134 -3.88629 0.128968
      CHANNELS 3 Zrotation Xrotation Yrotation
      JOINT RightLeg
      {
        OFFSET -0.557283 -16.0178 0.0584079
        CHANNELS 3 Zrotation Xrotation Yrotation
        JOINT RightFoot
        {
          OFFSET -0.113211 -17.963 0.310197
          CHANNELS 3 Zrotation Xrotation Yrotation
          JOINT RightToeBase
          {
            OFFSET -0.663182 -7.38523 8.38825
            CHANNELS 3 Zrotation Xrotation Yrotation
            End Site
            {
              OFFSET -0.406279 0.043209 5.537
            }
          }
        }
      }
    }
  }
  JOINT LeftHipJoint
  {
    OFFSET 0 0 0
    CHANNELS 3 Zrotation Xrotation Yrotation
    JOINT LeftUpLeg
    {
      OFFSET 6.08134 -3.88629 0.128968
      CHANNELS 3 Zrotation Xrotation Yrotation
      JOINT LeftLeg
      {
        OFFSET 0.557283 -16.0178 0.0584079
        CHANNELS 3 Zrotation Xrotation Yrotation
        JOINT LeftFoot
        {
          OFFSET 0.113211 -17.963 0.310197
          CHANNELS 3 Zrotation Xrotation Yrotation
          JOINT LeftToeBase
          {
            OFFSET 0.663182 -7.38523 8.38825
            CHANNELS 3 Zrotation Xrotation Yrotation
            End Site
            {
              OFFSET 0.406279 0.043209 5.537
            }
          }
        }
      }
    }
  }
  JOINT LowerBack
  {
    OFFSET 0 0 0
    CHANNELS 3 Zrotation Xrotation Yrotation
    JOINT Spine
    {
      OFFSET 0 5.04431 -0.164042
      CHANNELS 3 Zrotation Xrotation Yrotation
      JOINT Spine1
      {
        OFFSET 0 6.7752 -0.262859
        CHANNELS 3 Zrotation Xrotation Yrotation
        JOINT Spine2
        {
          OFFSET 0 7.06988 -0.278313
          CHANNELS 3 Zrotation Xrotation Yrotation
          JOINT RightShoulder
          {
            OFFSET -3.78479 6.42979 -0.288036
            CHANNELS 3 Zrotation Xrotation Yrotation
            JOINT RightArm
            {
              OFFSET -6.31165 -2.71771 0.0219277
              CHANNELS 3 Zrotation Xrotation Yrotation
              JOINT RightForeArm
              {
                OFFSET -11.5936 -0.943246 -0.40631
                CHANNELS 3 Zrotation Xrotation Yrotation
                JOINT RightHand
                {
                  OFFSET -17.7496 -0.164851 0.501108
                  CHANNELS 3 Zrotation Xrotation Yrotation
                  End Site
                  {
                    OFFSET -8.18929 -0.905915 0.215009
                  }
                }
              }
            }
          }
          JOINT LeftShoulder
          {
            OFFSET 3.78479 6.42979 -0.288036
            CHANNELS 3 Zrotation Xrotation Yrotation
            JOINT LeftArm
            {
              OFFSET 6.31165 -2.71771 0.0219277
              CHANNELS 3 Zrotation Xrotation Yrotation
              JOINT LeftForeArm
              {
                OFFSET 11.5936 -0.943246 -0.40631
                CHANNELS 3 Zrotation Xrotation Yrotation
                JOINT LeftHand
                {
                  OFFSET 17.7496 -0.164851 0.501108
                  CHANNELS 3 Zrotation Xrotation Yrotation
                  End Site
                  {
                    OFFSET 8.18929 -0.905915 0.215009
                  }
                }
              }
            }
          }
          JOINT Neck
          {
            OFFSET 0 10.3326 -0.261975
            CHANNELS 3 Zrotation Xrotation Yrotation
            JOINT Head
            {
              OFFSET 0 12.4977 0.713112
              CHANNELS 3 Zrotation Xrotation Yrotation
              End Site
              {
                OFFSET 0 26.9967 0
              }
            }
          }
        }
      }
    }
  }
}
MOTION
Frames:	16
Frame Time:	0.0333333
0.0617059 47.1219 2.08894 0 0 -0 0 0 -0 1.15436 0.144867 -0.000607878 -7.38894e-05 0.892853 0.00199804 -1.15451 -1.03748 -0.0222973 5.48765e-25 0 7.40531e-25 0 0 -0 -1.12192 -6.49764 -0.130646 -0.0128215 13.504 0.135494 1.11165 -7.00509 0.132365 4.45266e-25 0 -0 0 0 -0 9.13078e-14 6.10667e-13 5.42501e-22 -5.78205e-36 0 -0 -5.78205e-36 0 -0 -5.78205e-36 0 -0 -5.59419e-05 6.06983e-06 -7.27955e-05 5.12995e-05 -6.12313e-06 6.9914e-05 4.64239e-06 5.3361e-08 2.88149e-06 -5.78205e-36 0 -0 5.2934e-05 9.29816e-06 6.94475e-05 -4.74912e-05 -9.2981e-06 -6.70996e-05 -5.44281e-06 1.11518e-13 -2.34788e-06 -5.78205e-36 0 -0 -5.78205e-36 0 -0 
19.3661 40.885 72.1407 -6.22374 -3.00066 114.643 -1.10348e-32 -1.98785e-16 -3.18055e-15 -9.15714 -45.6005 -16.1841 -23.9913 33.6078 17.8521 -48.9181 3.2513 17.9727 5.74779 -6.27645 -6.99494 -1.10348e-32 -1.98785e-16 -3.18055e-15 -12.8645 -50.0183 30.4952 74.2508 69.5298 -60.1691 71.8622 7.01839 -28.8987 -7.97826 -1.95118 23.2363 -1.10348e-32 -1.98785e-16 -3.18055e-15 0.502442 2.22352 -1.00796 1.04516 4.43776 -2.03769 1.04516 4.43776 -2.0377 -9.00081 5.26462 -39.2308 75.2483 41.7864 -9.12294 -6.24678 10.3082 54.0955 -6.17354 6.97172 19.1321 11.5664 -0.987265 21.4441 -61.3578 52.7821 -25.3804 3.01242 5.9055 -122.18 9.91366 1.24748 -18.2008 -6.69494 -14.3218 3.13607 -1.07735 -8.70468 5.80253 
21.7535 39.8952 72.6013 -3.73768 -3.84464 124.168 -3.97569e-16 -1.19271e-15 3.18055e-15 -16.7371 -45.7261 -20.5353 -35.9771 48.5796 26.5193 -29.1214 -4.6503 13.21 9.34805 -6.41046 -9.95535 -3.97569e-16 -1.19271e-15 3.18055e-15 -14.4533 -56.7442 29.7591 88.2431 67.6307 -72.5265 68.6222 5.90626 -24.9058 -7.53439 -2.69404 22.223 -3.97569e-16 -1.19271e-15 3.18055e-15 0.71816 2.74701 -1.24624 1.49862 5.47749 -2.53125 1.49862 5.47749 -2.53123 -8.05306 4.18564 -38.9504 76.0345 42.7701 -8.32689 -5.65146 10.1094 52.1233 -6.52354 6.85857 19.6572 10.2408 0.111869 22.4431 -58.8791 53.0882 -24.651 0.870367 4.22279 -120.165 13.0929 4.21304 -18.9851 -6.59792 -14.6295 2.74539 -0.0765383 -9.95016 4.89757 
23.8577 38.7661 72.9893 -0.406509 -3.72353 132.241 3.97569e-16 -3.97569e-16 -0 -22.1624 -41.1744 -28.2048 -46.4334 58.152 36.4852 -23.1233 -15.477 10.382 10.6521 -9.10474 -12.032 3.97569e-16 -3.97569e-16 -0 -17.2405 -61.8546 28.9656 93.6386 65.6729 -77.8717 63.947 3.21036 -21.3618 -7.18017 -5.03733 22.3714 3.97569e-16 -3.97569e-16 -0 1.10993 3.43049 -1.08245 2.29084 6.83868 -2.2374 2.29084 6.83867 -2.23738 -7.31463 1.91132 -38.7017 73.8512 44.4776 -4.70087 -4.83408 10.0398 47.7193 -5.85641 6.21434 19.112 7.43946 0.983398 23.6826 -58.8677 51.727 -22.9222 0.101897 2.02416 -115.001 15.6292 6.77595 -18.843 -6.71603 -15.1902 1.54822 -0.338572 -9.57148 3.52769 
25.1801 37.7088 73.5849 1.58274 -3.3956 136.678 1.19271e-15 3.97569e-16 6.36111e-15 -28.2778 -41.8736 -39.2876 -58.2305 65.4263 48.4848 -28.8625 -15.9457 9.77795 9.56004 -10.8784 -13.2394 1.19271e-15 3.97569e-16 6.36111e-15 -21.8501 -67.1669 27.3578 90.6251 65.1942 -75.203 59.8801 0.447832 -18.7296 -7.4595 -5.78554 22.1627 1.19271e-15 3.97569e-16 6.36111e-15 1.65411 4.28086 -0.408409 3.35293 8.54796 -0.944963 3.35293 8.54796 -0.944946 -7.9081 -1.28602 -36.2312 68.9064 45.8207 3.1813 -5.16021 10.18 40.7246 -5.32117 5.7306 16.7959 4.66885 2.06587 23.6118 -66.5397 47.2153 -18.2904 2.1911 -0.147591 -105.481 17.852 9.37883 -17.8598 -6.65663 -15.1868 -0.633038 -2.14727 -11.2072 1.92731 
26.9524 37.0551 74.1385 4.36595 -4.17159 141.518 -3.97569e-16 1.19271e-15 -3.18055e-15 -25.9382 -40.4284 -44.2778 -72.3801 66.575 59.5954 -29.8954 -17.1986 8.60825 8.89065 -11.4421 -15.3829 -3.97569e-16 1.19271e-15 -3.18055e-15 -24.139 -70.2544 25.5766 81.9491 65.1485 -67.8054 57.5606 -1.39607 -17.8483 -7.7825 -5.72755 22.3605 -3.97569e-16 1.19271e-15 -3.18055e-15 2.48005 5.04733 0.0337706 4.98629 10.0913 -0.153472 4.9863 10.0913 -0.15349 -9.3708 -4.3775 -33.4028 63.7561 44.117 11.6266 -6.07372 10.4323 34.7281 -4.14571 4.99742 13.2767 2.37704 4.04186 22.4973 -75.453 39.5405 -13.0257 4.44089 -0.582497 -96.8174 17.8048 10.8549 -13.5536 -6.38722 -15.7954 -2.78068 -4.02437 -11.599 0.51121 
28.3479 36.7727 73.8008 5.74695 -4.2994 145.389 -1.59028e-15 3.97569e-16 -0 -25.076 -35.559 -45.3217 -74.9644 68.5629 62.6225 -29.1881 -20.0828 5.78505 8.04105 -11.8892 -16.6293 -1.59028e-15 3.97569e-16 -0 -29.9775 -70.2587 21.4578 69.3674 64.0325 -54.7913 54.5553 -4.74313 -17.3743 -8.15314 -5.48275 22.9663 -1.59028e-15 3.97569e-16 -0 2.70179 5.65274 0.289611 5.41458 11.3128 0.311895 5.41458 11.3128 0.311891 -11.3108 -6.91954 -32.2546 63.8911 36.7207 16.4199 -8.71515 10.4908 35.9352 -4.85448 5.4387 12.2794 1.47249 6.32237 21.4212 -78.6345 33.4368 -8.78431 -0.857672 -0.297626 -93.1212 17.28 10.7542 -11.8116 -6.43703 -15.9778 -2.89681 -3.92112 -12.6416 0.0314321 
29.5963 36.6776 73.054 6.38907 -4.56456 148.55 8.82781e-32 7.95139e-16 -6.36111e-15 -24.4055 -30.8766 -45.638 -72.8703 70.542 61.4614 -29.3108 -21.314 3.46613 6.98759 -12.0409 -17.5519 8.82781e-32 7.95139e-16 -6.36111e-15 -36.1898 -69.0734 17.0337 59.8237 61.4848 -44.0567 52.4181 -9.91125 -17.1399 -8.06085 -5.5847 22.8295 8.82781e-32 7.95139e-16 -6.36111e-15 2.53537 6.15534 0.490114 5.06166 12.3264 0.710159 5.06166 12.3264 0.710165 -14.1917 -7.44742 -32.5927 70.3177 26.1706 17.6182 -11.7869 8.82893 45.9745 -7.67043 6.70073 14.9766 2.23542 8.25793 20.703 -76.3192 33.0788 -6.56539 -3.59928 -0.528228 -93.8237 18.7246 12.4828 -13.8745 -6.52252 -15.8033 -2.01582 -2.68152 -15.1162 -0.207778 
30.9813 36.7252 71.7408 6.52481 -5.24029 152.431 -7.95139e-16 7.95139e-16 -0 -23.6768 -25.2183 -45.3335 -63.5748 72.8398 53.4765 -29.5619 -21.0681 1.3874 5.81412 -11.9813 -18.6059 -7.95139e-16 7.95139e-16 -0 -41.6729 -65.9409 12.9166 50.545 57.61 -33.748 52.4008 -13.2337 -19.0573 -8.08162 -5.87195 23.0266 -7.95139e-16 7.95139e-16 -0 2.4009 6.33931 0.40066 4.80145 12.6898 0.536817 4.80145 12.6898 0.53682 -16.014 -7.095 -34.3261 74.5096 21.3506 19.2954 -16.1392 6.66878 59.0635 -12.4095 8.91214 21.1181 2.90715 9.79107 20.924 -73.264 36.6433 -4.63534 -1.18615 -1.20869 -95.1081 21.9071 16.0289 -17.5337 -6.72578 -15.886 -1.14197 -1.58348 -17.0344 -0.052734 
32.5822 36.9036 69.8886 6.36054 -6.61562 156.177 -1.59028e-15 0 3.18055e-15 -21.779 -19.5154 -45.383 -48.7471 72.7894 39.0543 -29.9276 -19.7237 1.05455 4.81107 -11.5676 -20.0022 -1.59028e-15 0 3.18055e-15 -41.8639 -62.5658 12.4213 40.631 54.6065 -24.1889 54.1889 -11.3839 -19.543 -8.16368 -5.84652 23.0144 -1.59028e-15 0 3.18055e-15 2.28795 6.17838 0.301124 4.58336 12.3639 0.355336 4.58336 12.3639 0.355345 -16.1466 -6.05509 -35.9139 75.305 20.701 20.7304 -21.5053 4.41932 71.4132 -19.0252 11.9702 27.3182 3.48997 10.5311 21.0332 -71.7002 41.4458 -2.38238 -3.7663 -1.36246 -94.7936 22.8456 17.4263 -18.44 -6.79956 -16.2165 -0.37104 -0.736658 -17.9115 0.451517 
34.36 37.0024 67.4801 6.61654 -8.03559 159.36 -3.97569e-16 -1.59028e-15 3.18055e-15 -18.9963 -14.7487 -45.6483 -39.4287 70.2955 28.7861 -30.8359 -16.2812 5.7015 4.14582 -10.9539 -23.1857 -3.97569e-16 -1.59028e-15 3.18055e-15 -37.1039 -57.0473 17.3473 28.3796 51.8688 -13.504 63.2613 -8.94195 -18.308 -6.06122 -5.7719 20.3225 -3.97569e-16 -1.59028e-15 3.18055e-15 2.12228 5.75342 0.399987 4.23622 11.5178 0.588786 4.23622 11.5178 0.588769 -15.9281 -4.65689 -37.2656 74.6758 22.6797 19.8961 -20.1447 2.59445 78.8271 -27.0297 15.1955 32.2899 3.57757 10.6373 21.245 -70.3565 45.7539 -0.717095 -9.16484 -0.608783 -92.1368 20.7308 16.3852 -16.9316 -6.60261 -16.5484 0.449484 0.138744 -17.5964 1.14914 
35.368 37.2786 64.4179 6.60744 -7.99451 161.95 -7.95139e-16 0 -0 -19.5495 -10.842 -43.1938 -26.8504 67.3661 17.1144 -36.6458 -5.46519 19.4388 3.37224 -9.65584 -30.2852 -7.95139e-16 0 -0 -33.084 -50.0698 23.2567 21.4534 52.8657 -5.98781 66.8892 -12.9023 -10.608 -2.8149 -7.28943 18.6669 -7.95139e-16 0 -0 2.01686 5.03393 0.490723 4.01361 10.082 0.80718 4.01361 10.082 0.807174 -15.0612 -4.95522 -40.0434 70.5737 28.9335 18.0336 -19.724 2.87536 79.0339 -28.9019 16.0189 34.6032 0.285448 9.88278 23.6448 -67.8959 48.1408 0.309692 -11.8855 1.03862 -86.0227 17.008 14.0137 -13.8366 -7.0614 -16.7706 0.547456 -0.00960467 -15.3338 1.42684 
35.9828 37.2298 62.1035 5.88488 -8.88416 164.808 1.98785e-15 1.59028e-15 -1.59028e-15 -20.4642 -13.2981 -42.3787 -27.3153 67.4647 16.2804 -50.9176 -1.45397 40.1552 5.86379 -2.23883 -36.0406 1.98785e-15 1.59028e-15 -1.59028e-15 -34.11 -48.6023 23.2257 21.767 55.5564 -5.1993 68.9882 -13.8002 -11.745 -2.37575 -8.22227 20.9724 1.98785e-15 1.59028e-15 -1.59028e-15 1.86304 4.59054 0.493724 3.70417 9.19465 0.840985 3.70417 9.19466 0.84099 -14.9998 -4.59008 -39.4956 69.6092 31.1045 16.2608 -21.8393 5.33437 73.1818 -24.5318 14.4204 34.5477 -0.197606 10.3738 22.9297 -71.0678 42.3547 0.863502 -12.5742 2.35348 -78.9369 13.1452 10.9309 -9.57095 -6.78944 -16.394 0.105696 -0.684517 -16.1291 1.17243 
36.4634 37.239 60.0236 5.53124 -9.51913 167.739 -2.38542e-15 0 -0 -18.5467 -17.4002 -41.7107 -35.9057 67.3595 21.722 -66.0247 -5.5692 56.6289 8.72139 1.73673 -29.8062 -2.38542e-15 0 -0 -33.9208 -47.0611 24.4212 20.4553 57.1108 -3.47113 72.3883 -12.8859 -15.4534 -1.81311 -9.10892 25.123 -2.38542e-15 0 -0 1.83733 4.46081 0.428457 3.6578 8.93305 0.715995 3.6578 8.93304 0.715995 -14.2913 -5.03901 -38.4814 68.6349 31.25 14.8833 -21.0938 8.79737 62.5043 -18.3843 12.3483 30.3845 -0.790541 9.65033 21.9235 -72.6657 35.8496 -0.544907 -13.5519 2.2812 -74.4751 10.3284 7.58841 -7.18422 -6.61319 -16.4618 -0.0343569 -1.10892 -17.2372 1.11477 
36.8772 37.3169 57.8334 5.44523 -10.2151 171.416 -1.39149e-15 1.59028e-15 1.59028e-15 -15.9307 -24.7853 -36.9612 -52.8876 68.805 33.1032 -67.8327 -5.01567 54.1274 9.06858 2.01557 -29.7386 -1.39149e-15 1.59028e-15 1.59028e-15 -32.4862 -43.412 26.6082 17.3216 57.7742 -0.293074 74.961 -14.2179 -16.9373 -0.491336 -9.75126 28.2016 -1.39149e-15 1.59028e-15 1.59028e-15 1.93597 4.27802 0.203902 3.87291 8.56049 0.26342 3.87291 8.56048 0.263417 -13.1459 -5.32807 -37.2254 67.1994 31.2932 13.3738 -17.4314 11.4538 48.7967 -12.4146 10.0069 23.5143 0.120871 7.43492 21.1726 -71.8714 33.808 -3.84586 -9.8999 2.15406 -74.8117 11.775 8.3394 -9.04511 -6.56133 -16.5656 -0.198404 -1.33715 -16.7585 1.05011 
37.2029 37.1879 55.8811 5.25412 -10.8993 174.674 -2.38542e-15 1.59028e-15 -0 -15.9699 -34.4655 -34.3474 -63.4811 68.3982 39.1543 -68.4698 5.36188 42.9194 8.34662 0.920212 -25.5669 -2.38542e-15 1.59028e-15 -0 -30.039 -40.2172 29.228 14.2592 59.8724 1.98764 76.3755 -17.0137 -17.0005 0.866291 -10.8228 30.1193 -2.38542e-15 1.59028e-15 -0 2.04411 4.19373 -0.0847428 4.11098 8.38172 -0.321198 4.11098 8.38171 -0.321197 -12.0498 -4.86716 -35.377 65.8361 32.5267 12.0843 -14.0245 12.4986 36.0799 -6.97728 7.1726 16.5127 2.38434 4.41463 20.759 -69.9056 32.165 -9.36848 -5.59306 1.55429 -78.6733 13.3493 9.0843 -10.8655 -6.53083 -16.4744 -0.68594 -1.71577 -16.0554 1.08491 
